Coordinates
version=1
nRows=12
nColumns=23
inDegrees=yes

Units are S.I. units (second, meters, Newtons, ...)
If the header above contains a line with 'inDegrees', this indicates whether rotational values are in degrees (yes) or radians (no).

endheader
time	pelvis_tilt	pelvis_list	pelvis_rotation	pelvis_tx	pelvis_ty	pelvis_tz	hip_flexion_r	hip_adduction_r	hip_rotation_r	knee_angle_r	knee_angle_r_beta	ankle_angle_r	subtalar_angle_r	mtp_angle_r	hip_flexion_l	hip_adduction_l	hip_rotation_l	knee_angle_l	knee_angle_l_beta	ankle_angle_l	subtalar_angle_l	mtp_angle_l
      7.50000000	     -9.27988892	      3.86164840	     13.46244187	      2.23290787	      0.98466680	      1.03490709	     17.73352679	    -15.12853768	    -13.68277729	     99.06288825	      1.72897357	    -11.85511881	     -8.58881306	      0.00000000	     35.12755182	      9.09222239	     -1.13602983	     54.14360401	      0.94498416	     24.86782355	      0.13488860	      0.00000000
      7.50666667	     -9.64972956	      3.74683716	     13.04616364	      2.23113049	      0.98386351	      1.03572918	     20.86662200	    -15.40886047	    -12.74153790	     99.93015898	      1.74411030	    -10.99727545	     -7.99384520	      0.00000000	     33.61135774	      8.59557963	     -0.95945547	     54.11779551	      0.94453372	     26.65313005	      0.65978455	      0.00000000
      7.51333333	     -9.92041381	      3.61840650	     12.50012499	      2.22972236	      0.98391133	      1.03642623	     23.85211669	    -15.55006132	    -11.82342324	    100.38735265	      1.75208983	    -10.12412341	     -7.46000736	      0.00000000	     31.76312561	      8.00916562	     -0.88593463	     53.66243342	      0.93658615	     27.91842246	      1.07717211	      0.00000000
      7.52000000	    -10.00429706	      3.44965363	     11.83307711	      2.22875458	      0.98494034	      1.03704964	     26.53912973	    -15.48310759	    -10.98987913	    100.40546920	      1.75240602	     -9.27796661	     -7.12298537	      0.00000000	     29.50856924	      7.31712776	     -0.88056003	     52.78777238	      0.92132043	     28.62891043	      1.27691803	      0.00000000
      7.52666667	    -10.00056665	      3.20224314	     11.08344712	      2.22825090	      0.98672117	      1.03751013	     28.98192735	    -15.25248965	    -10.33644479	     99.99785582	      1.74529183	     -8.41993081	     -6.91531080	      0.00000000	     27.00064687	      6.55460679	     -0.89771568	     51.58288104	      0.90029111	     28.99043076	      1.46070941	      0.00000000
      7.53333333	     -9.80016165	      3.01365609	     10.22413561	      2.22826822	      0.98934774	      1.03802988	     31.06215394	    -14.88481178	     -9.72353507	     99.22813337	      1.73185764	     -7.50651011	     -6.73083457	      0.00000000	     24.09073767	      5.74127648	     -1.21270862	     50.00716813	      0.87278973	     29.13096569	      1.78618393	      0.00000000
      7.54000000	     -9.27800134	      2.79814352	      9.31870910	      2.22884956	      0.99295771	      1.03845031	     32.54526196	    -14.41253323	     -9.35989987	     98.02556124	      1.71086879	     -6.65541475	     -6.69318231	      0.00000000	     20.69186999	      4.87027889	     -1.66195998	     48.13354119	      0.84008877	     29.15901906	      2.45072706	      0.00000000
      7.54666667	     -8.64668819	      2.47783399	      8.42855411	      2.22992538	      0.99710674	      1.03878469	     33.66873441	    -13.78313880	     -9.24955063	     96.45482022	      1.68345419	     -5.83049764	     -6.87579676	      0.00000000	     17.09740556	      3.94428731	     -2.17038998	     46.06258182	      0.80394371	     29.07678177	      3.35008420	      0.00000000
      7.55333333	     -8.13422285	      2.10750090	      7.49751636	      2.23120376	      1.00139625	      1.03915471	     34.77451584	    -13.02367680	     -9.21524423	     94.61059979	      1.65126647	     -4.94230005	     -7.21731006	      0.00000000	     13.60126355	      3.07702653	     -2.75207442	     43.84911020	      0.76531135	     28.78840755	      4.04163963	      0.00000000
      7.56000000	     -7.39888283	      1.66472832	      6.70064464	      2.23290533	      1.00627480	      1.03938409	     35.33962330	    -12.25294244	     -9.54094204	     92.41494688	      1.61294510	     -4.25928110	     -7.61185745	      0.00000000	      9.83014142	      2.16812802	     -3.39246265	     41.47319305	      0.72384377	     28.05133087	      5.20720649	      0.00000000
      7.56666667	     -7.08110178	      1.20666076	      5.85840661	      2.23462866	      1.01077318	      1.03971905	     36.27304943	    -11.38131357	     -9.80781842	     90.04073529	      1.57150729	     -3.43670229	     -8.05503000	      0.00000000	      6.53455925	      1.40231123	     -4.08691232	     38.99862319	      0.68065438	     26.23699454	      5.66439244	      0.00000000
      7.57333333	     -6.49367224	      0.77382699	      5.21055508	      2.23671831	      1.01590062	      1.03971852	     36.61104043	    -10.67161447	    -10.40217619	     87.34174783	      1.52440107	     -2.91883289	     -8.45249344	      0.00000000	      2.90141873	      0.81882024	     -4.46454930	     36.27959751	      0.63319843	     23.68727560	      5.95396924	      0.00000000
